<?xml version="1.0" encoding="UTF-8" standalone="no"?>
<!DOCTYPE svg PUBLIC "-//W3C//DTD SVG 1.1//EN" "http://www.w3.org/Graphics/SVG/1.1/DTD/svg11.dtd">
<svg version="1.1" xmlns="http://www.w3.org/2000/svg" xmlns:xlink="http://www.w3.org/1999/xlink" preserveAspectRatio="xMidYMid meet" viewBox="0 0 640 640" width="650" height="650"><defs><path d="M530.51 189.98L530.51 190.34L529.33 432.21L529.02 432.21L320.33 552.94L320.03 552.94L110.52 431.85L110.52 431.49L109.49 189.63L320.03 66.75L320.38 66.95L530.51 189.98ZM317.47 548.08L317.47 474.3L243.99 459.55L317.11 548.08L317.47 548.08ZM322.48 548.08L323.25 547.62L396.21 459.5L322.48 474.3L322.48 548.08ZM241.95 459.14L125.47 435.8L313.63 546.18L241.95 459.14ZM326.37 545.82L514.59 435.8L398.16 459.14L326.37 545.82ZM238.98 453.31L315.26 468.67L273.95 392.68L188.65 392.68L238.98 453.31ZM324.43 468.67L401.23 453.31L451.51 392.68L366 392.68L324.43 468.67ZM320.03 467.03L360.32 392.68L279.58 392.68L320.03 467.03ZM523.29 428.99L453.15 392.84L403.17 453.31L523.29 428.99ZM236.88 453.31L187.11 392.89L116.81 429.24L236.88 453.31ZM114.87 428.73L186.55 391.87L157.72 313.38L114.51 428.58L114.87 428.73ZM525.18 428.58L525.39 428.63L482.28 313.73L453.61 391.87L525.18 428.58ZM113.64 416.85L155.32 306.21L114.36 194.95L113.18 194.34L112.92 249.84L113.64 416.85ZM484.89 306.46L526.31 416.85L526.98 224.29L526.98 194.28L525.85 194.85L484.89 306.46ZM273.33 391.66L230.89 313.53L188.39 391.66L273.33 391.66ZM233.65 308.1L279.07 391.46L360.99 391.46L406.4 307.9L364.26 230.28L275.89 230.28L233.65 308.1ZM451.81 391.46L409.22 313.12L366.67 391.46L451.81 391.46ZM481.61 311.84L452.33 233.81L409.93 311.79L452.74 390.59L481.61 311.84ZM187.42 390.59L230.17 312.2L187.62 233.81L158.44 311.53L187.42 390.59ZM232.99 306.77L274.51 230.28L191.41 230.28L232.99 306.77ZM407.07 306.57L448.54 230.28L365.64 230.28L407.07 306.57ZM484.22 304.83L524.21 195.67L455.86 229.1L484.22 304.83ZM184.09 229.05L115.99 195.72L155.83 304.42L184.09 229.05ZM447.46 225.31L395.96 163.1L321.25 148.51L362.98 225.31L447.46 225.31ZM361.5 225.31L320.03 148.92L278.6 225.31L361.5 225.31ZM192.49 225.31L276.97 225.31L318.69 148.51L243.79 163.16L192.49 225.31ZM524.62 189.93L520.47 187.53L403.84 164.69L453.5 224.75L524.62 189.93ZM115.23 189.93L186.55 224.7L236.31 164.74L119.63 187.53L115.23 189.93ZM517.15 185.58L330.83 76.73L402.51 163.16L517.15 185.58ZM237.54 163.16L309.07 76.73L122.85 185.58L237.54 163.16ZM319.46 147.13L319.46 71.97L245.22 161.47L319.46 147.13ZM394.68 161.47L320.69 72.22L320.69 147.13L394.68 161.47Z" id="aLywlHWMU"></path></defs><g><g><g><use xlink:href="#aLywlHWMU" opacity="1" fill="#ebeffe" fill-opacity="1"></use><g><use xlink:href="#aLywlHWMU" opacity="1" fill-opacity="0" stroke="#000000" stroke-width="1" stroke-opacity="0"></use></g></g></g></g></svg>