<svg xmlns="http://www.w3.org/2000/svg" viewBox="0 0 100 125" x="0px" y="0px"><title>icosahedron</title><g><path d="M50.07,2.54,50,2.5l-41.12,24,.2,47.24v.07L50,97.46l.06,0L90.82,73.88l.06,0,.23-47.24v-.07Zm40,70.63L76.09,66l5.6-15.26,8.42,22.44Zm-80.21,0,8.44-22.5L23.93,66l-14,7.2Zm1-47.08,22.79-4.45L23.93,33.35,10,26.56Zm79.1.47-13.89,6.8-9.7-11.73,22.78,4.46ZM66.11,21.33l-14-16.88L88.5,25.71ZM58,65.92H42L33.13,49.64l8.25-15.2H58.64L66.87,49.6ZM41.91,33.47,50,18.55l8.1,14.92Zm17.2,32.45,8.31-15.3,8.32,15.3Zm-24-44.59,14.63-2.86-8.15,15H25.09Zm6,13.11L33,49.38,24.88,34.44Zm-8.66,16L24.1,65.75,18.44,50.31l5.7-15.18Zm.14.26,8.29,15.26H24.29ZM41,66.16,49.07,81l-14.9-3L24.34,66.16Zm16.87,0L50,80.68,42.1,66.16Zm1.11,0h16.7L65.86,78l-15,3Zm16.94-.41L67.56,50.36l8.28-15.23,5.72,15.24ZM67,49.34l-8.09-14.9H75.1ZM58.39,33.47l-8.15-15,14.59,2.85L74.89,33.47ZM50.13,18.2V3.57L64.58,21Zm-.24,0L35.39,21,49.89,3.52Zm-16,3.13L11.49,25.71,47.86,4.45ZM23.45,34.2,17.93,48.92,10.15,27.69Zm.59,32L33.76,78l-23.45-4.7ZM50.48,96.51V82.1l14.4-2.89L50.63,96.42ZM65.26,79.14,88,74.58,51.24,96.07ZM76,66.19,89.7,73.25,66.24,78ZM82.07,49,76.53,34.21l13.35-6.53ZM9.6,27.42l.23.12,8,21.73L9.69,70.88,9.55,38.26ZM34.75,79.14l14,17L12,74.58Zm.4.08L49.5,82.1V96.51l-.07,0Zm55.14-8.34L82.2,49.32l8-21.8.22-.11,0,5.86ZM9.34,73.61h0Z" style="fill: #ebeffe;"/></g></svg>
